<svg width="938" height="98" viewBox="0 0 938 98" fill="none" xmlns="http://www.w3.org/2000/svg">
<circle cx="125.5" cy="5.5" r="5.5" fill="#252932" fill-opacity="0.5"/>
<circle cx="125.5" cy="63.5" r="5.5" fill="#252932" fill-opacity="0.5"/>
<circle cx="125.5" cy="34.5" r="5.5" fill="#252932" fill-opacity="0.5"/>
<circle cx="125.5" cy="92.5" r="5.5" fill="#252932" fill-opacity="0.5"/>
<circle cx="154.5" cy="5.5" r="5.5" fill="#252932" fill-opacity="0.6"/>
<circle cx="154.5" cy="63.5" r="5.5" fill="#252932" fill-opacity="0.6"/>
<circle cx="154.5" cy="34.5" r="5.5" fill="#252932" fill-opacity="0.6"/>
<circle cx="154.5" cy="92.5" r="5.5" fill="#252932" fill-opacity="0.6"/>
<circle cx="183.5" cy="5.5" r="5.5" fill="#252932" fill-opacity="0.7"/>
<circle cx="183.5" cy="63.5" r="5.5" fill="#252932" fill-opacity="0.7"/>
<circle cx="183.5" cy="34.5" r="5.5" fill="#252932" fill-opacity="0.7"/>
<circle cx="183.5" cy="92.5" r="5.5" fill="#252932" fill-opacity="0.7"/>
<circle cx="212.5" cy="5.5" r="5.5" fill="#252932" fill-opacity="0.8"/>
<circle cx="212.5" cy="63.5" r="5.5" fill="#252932" fill-opacity="0.8"/>
<circle cx="212.5" cy="34.5" r="5.5" fill="#252932" fill-opacity="0.8"/>
<circle cx="212.5" cy="92.5" r="5.5" fill="#252932" fill-opacity="0.8"/>
<circle cx="605.5" cy="5.5" r="5.5" fill="#252932"/>
<circle cx="605.5" cy="63.5" r="5.5" fill="#252932"/>
<circle cx="605.5" cy="34.5" r="5.5" fill="#252932"/>
<circle cx="605.5" cy="92.5" r="5.5" fill="#252932"/>
<circle cx="634.5" cy="5.5" r="5.5" fill="#252932"/>
<circle cx="634.5" cy="63.5" r="5.5" fill="#252932"/>
<circle cx="634.5" cy="34.5" r="5.5" fill="#252932"/>
<circle cx="634.5" cy="92.5" r="5.5" fill="#252932"/>
<circle cx="663.5" cy="5.5" r="5.5" fill="#252932"/>
<circle cx="663.5" cy="63.5" r="5.5" fill="#252932"/>
<circle cx="663.5" cy="34.5" r="5.5" fill="#252932"/>
<circle cx="663.5" cy="92.5" r="5.5" fill="#252932"/>
<circle cx="692.5" cy="5.5" r="5.5" fill="#252932"/>
<circle cx="692.5" cy="63.5" r="5.5" fill="#252932"/>
<circle cx="692.5" cy="34.5" r="5.5" fill="#252932"/>
<circle cx="692.5" cy="92.5" r="5.5" fill="#252932"/>
<circle cx="365.5" cy="5.5" r="5.5" fill="#252932"/>
<circle cx="365.5" cy="63.5" r="5.5" fill="#252932"/>
<circle cx="365.5" cy="34.5" r="5.5" fill="#252932"/>
<circle cx="365.5" cy="92.5" r="5.5" fill="#252932"/>
<circle cx="394.5" cy="5.5" r="5.5" fill="#252932"/>
<circle cx="394.5" cy="63.5" r="5.5" fill="#252932"/>
<circle cx="394.5" cy="34.5" r="5.5" fill="#252932"/>
<circle cx="394.5" cy="92.5" r="5.5" fill="#252932"/>
<circle cx="423.5" cy="5.5" r="5.5" fill="#252932"/>
<circle cx="423.5" cy="63.5" r="5.5" fill="#252932"/>
<circle cx="423.5" cy="34.5" r="5.5" fill="#252932"/>
<circle cx="423.5" cy="92.5" r="5.5" fill="#252932"/>
<circle cx="452.5" cy="5.5" r="5.5" fill="#252932"/>
<circle cx="452.5" cy="63.5" r="5.5" fill="#252932"/>
<circle cx="452.5" cy="34.5" r="5.5" fill="#252932"/>
<circle cx="452.5" cy="92.5" r="5.5" fill="#252932"/>
<circle cx="845.5" cy="5.5" r="5.5" fill="#252932"/>
<circle cx="845.5" cy="63.5" r="5.5" fill="#252932"/>
<circle cx="845.5" cy="34.5" r="5.5" fill="#252932"/>
<circle cx="845.5" cy="92.5" r="5.5" fill="#252932"/>
<circle cx="874.5" cy="5.5" r="5.5" fill="#252932"/>
<circle cx="874.5" cy="63.5" r="5.5" fill="#252932"/>
<circle cx="874.5" cy="34.5" r="5.5" fill="#252932"/>
<circle cx="874.5" cy="92.5" r="5.5" fill="#252932"/>
<circle cx="903.5" cy="5.5" r="5.5" fill="#252932"/>
<circle cx="903.5" cy="63.5" r="5.5" fill="#252932"/>
<circle cx="903.5" cy="34.5" r="5.5" fill="#252932"/>
<circle cx="903.5" cy="92.5" r="5.5" fill="#252932"/>
<circle cx="932.5" cy="5.5" r="5.5" fill="#252932"/>
<circle cx="932.5" cy="63.5" r="5.5" fill="#252932"/>
<circle cx="932.5" cy="34.5" r="5.5" fill="#252932"/>
<circle cx="932.5" cy="92.5" r="5.5" fill="#252932"/>
<circle cx="5.5" cy="5.5" r="5.5" fill="#252932" fill-opacity="0.1"/>
<circle cx="5.5" cy="63.5" r="5.5" fill="#252932" fill-opacity="0.1"/>
<circle cx="5.5" cy="34.5" r="5.5" fill="#252932" fill-opacity="0.1"/>
<circle cx="5.5" cy="92.5" r="5.5" fill="#252932" fill-opacity="0.1"/>
<circle cx="34.5" cy="5.5" r="5.5" fill="#252932" fill-opacity="0.2"/>
<circle cx="34.5" cy="63.5" r="5.5" fill="#252932" fill-opacity="0.2"/>
<circle cx="34.5" cy="34.5" r="5.5" fill="#252932" fill-opacity="0.2"/>
<circle cx="34.5" cy="92.5" r="5.5" fill="#252932" fill-opacity="0.2"/>
<circle cx="63.5" cy="5.5" r="5.5" fill="#252932" fill-opacity="0.3"/>
<circle cx="63.5" cy="63.5" r="5.5" fill="#252932" fill-opacity="0.3"/>
<circle cx="63.5" cy="34.5" r="5.5" fill="#252932" fill-opacity="0.3"/>
<circle cx="63.5" cy="92.5" r="5.5" fill="#252932" fill-opacity="0.3"/>
<circle cx="92.5" cy="5.5" r="5.5" fill="#252932" fill-opacity="0.4"/>
<circle cx="92.5" cy="63.5" r="5.5" fill="#252932" fill-opacity="0.4"/>
<circle cx="92.5" cy="34.5" r="5.5" fill="#252932" fill-opacity="0.4"/>
<circle cx="92.5" cy="92.5" r="5.5" fill="#252932" fill-opacity="0.4"/>
<circle cx="485.5" cy="5.5" r="5.5" fill="#252932"/>
<circle cx="485.5" cy="63.5" r="5.5" fill="#252932"/>
<circle cx="485.5" cy="34.5" r="5.5" fill="#252932"/>
<circle cx="485.5" cy="92.5" r="5.5" fill="#252932"/>
<circle cx="514.5" cy="5.5" r="5.5" fill="#252932"/>
<circle cx="514.5" cy="63.5" r="5.5" fill="#252932"/>
<circle cx="514.5" cy="34.5" r="5.5" fill="#252932"/>
<circle cx="514.5" cy="92.5" r="5.5" fill="#252932"/>
<circle cx="543.5" cy="5.5" r="5.5" fill="#252932"/>
<circle cx="543.5" cy="63.5" r="5.5" fill="#252932"/>
<circle cx="543.5" cy="34.5" r="5.5" fill="#252932"/>
<circle cx="543.5" cy="92.5" r="5.5" fill="#252932"/>
<circle cx="572.5" cy="5.5" r="5.5" fill="#252932"/>
<circle cx="572.5" cy="63.5" r="5.5" fill="#252932"/>
<circle cx="572.5" cy="34.5" r="5.5" fill="#252932"/>
<circle cx="572.5" cy="92.5" r="5.5" fill="#252932"/>
<circle cx="245.5" cy="5.5" r="5.5" fill="#252932" fill-opacity="0.9"/>
<circle cx="245.5" cy="63.5" r="5.5" fill="#252932" fill-opacity="0.9"/>
<circle cx="245.5" cy="34.5" r="5.5" fill="#252932" fill-opacity="0.9"/>
<circle cx="245.5" cy="92.5" r="5.5" fill="#252932" fill-opacity="0.9"/>
<circle cx="274.5" cy="5.5" r="5.5" fill="#252932"/>
<circle cx="274.5" cy="63.5" r="5.5" fill="#252932"/>
<circle cx="274.5" cy="34.5" r="5.5" fill="#252932"/>
<circle cx="274.5" cy="92.5" r="5.5" fill="#252932"/>
<circle cx="303.5" cy="5.5" r="5.5" fill="#252932"/>
<circle cx="303.5" cy="63.5" r="5.5" fill="#252932"/>
<circle cx="303.5" cy="34.5" r="5.5" fill="#252932"/>
<circle cx="303.5" cy="92.5" r="5.5" fill="#252932"/>
<circle cx="332.5" cy="5.5" r="5.5" fill="#252932"/>
<circle cx="332.5" cy="63.5" r="5.5" fill="#252932"/>
<circle cx="332.5" cy="34.5" r="5.5" fill="#252932"/>
<circle cx="332.5" cy="92.5" r="5.5" fill="#252932"/>
<circle cx="725.5" cy="5.5" r="5.5" fill="#252932"/>
<circle cx="725.5" cy="63.5" r="5.5" fill="#252932"/>
<circle cx="725.5" cy="34.5" r="5.5" fill="#252932"/>
<circle cx="725.5" cy="92.5" r="5.5" fill="#252932"/>
<circle cx="754.5" cy="5.5" r="5.5" fill="#252932"/>
<circle cx="754.5" cy="63.5" r="5.5" fill="#252932"/>
<circle cx="754.5" cy="34.5" r="5.5" fill="#252932"/>
<circle cx="754.5" cy="92.5" r="5.5" fill="#252932"/>
<circle cx="783.5" cy="5.5" r="5.5" fill="#252932"/>
<circle cx="783.5" cy="63.5" r="5.5" fill="#252932"/>
<circle cx="783.5" cy="34.5" r="5.5" fill="#252932"/>
<circle cx="783.5" cy="92.5" r="5.5" fill="#252932"/>
<circle cx="812.5" cy="5.5" r="5.5" fill="#252932"/>
<circle cx="812.5" cy="63.5" r="5.5" fill="#252932"/>
<circle cx="812.5" cy="34.5" r="5.5" fill="#252932"/>
<circle cx="812.5" cy="92.5" r="5.5" fill="#252932"/>
</svg>
