<svg width="166" height="37" viewBox="0 0 166 37" fill="none" xmlns="http://www.w3.org/2000/svg">
<path d="M0 37H37.3841V5.62637e-08H0V37ZM30.1886 14.9399H22.2891V7.1216H30.1886V14.9399ZM7.19407 7.1216H15.0979V22.0601H30.1886V29.8784H7.19407V7.1216ZM61.7282 5.62637e-08C58.0313 5.62638e-08 54.4174 1.08501 51.3435 3.11781C48.2696 5.15062 45.8738 8.03992 44.459 11.4204C43.0443 14.8008 42.6741 18.5205 43.3953 22.1092C44.1166 25.6978 45.8968 28.9942 48.5109 31.5815C51.1251 34.1687 54.4557 35.9307 58.0816 36.6445C61.7075 37.3583 65.4658 36.992 68.8814 35.5918C72.2969 34.1915 75.2162 31.8203 77.2701 28.778C79.324 25.7357 80.4203 22.1589 80.4203 18.5C80.4145 13.5953 78.4433 8.89303 74.9391 5.42485C71.4349 1.95667 66.6839 0.00572656 61.7282 5.62637e-08ZM61.7282 29.8784C59.4544 29.8784 57.2317 29.2111 55.3411 27.9608C53.4505 26.7105 51.977 24.9335 51.1068 22.8543C50.2367 20.7752 50.009 18.4874 50.4526 16.2802C50.8962 14.073 51.9911 12.0455 53.5989 10.4543C55.2068 8.86295 57.2553 7.77927 59.4854 7.34023C61.7155 6.90119 64.027 7.12652 66.1277 7.98772C68.2285 8.84893 70.024 10.3073 71.2872 12.1785C72.5505 14.0497 73.2247 16.2496 73.2247 18.5C73.2201 21.5163 72.0074 24.4078 69.8524 26.5407C67.6974 28.6736 64.7759 29.8738 61.7282 29.8784ZM147.309 5.62637e-08C143.612 -0.000285247 139.998 1.08448 136.924 3.11711C133.85 5.14974 131.454 8.03895 130.039 11.4194C128.624 14.7998 128.254 18.5195 128.975 22.1083C129.696 25.697 131.476 28.9935 134.09 31.581C136.704 34.1684 140.035 35.9305 143.661 36.6444C147.287 37.3584 151.045 36.9921 154.461 35.5919C157.876 34.1917 160.796 31.8205 162.85 28.7782C164.904 25.7359 166 22.159 166 18.5C165.994 13.5955 164.023 8.8935 160.519 5.42536C157.015 1.95722 152.265 0.00610824 147.309 5.62637e-08ZM147.309 29.8784C145.036 29.8787 142.813 29.2116 140.922 27.9615C139.031 26.7114 137.557 24.9344 136.687 22.8553C135.817 20.7762 135.589 18.4884 136.032 16.2811C136.476 14.0738 137.57 12.0462 139.178 10.4548C140.786 8.86332 142.834 7.77949 145.065 7.34033C147.295 6.90118 149.606 7.12643 151.707 7.98759C153.808 8.84875 155.604 10.3071 156.867 12.1783C158.13 14.0495 158.804 16.2495 158.804 18.5C158.8 21.5161 157.587 24.4073 155.433 26.5402C153.278 28.673 150.357 29.8734 147.309 29.8784ZM104.518 5.62637e-08C100.821 5.62638e-08 97.2072 1.08501 94.1333 3.11781C91.0594 5.15062 88.6636 8.03992 87.2489 11.4204C85.8341 14.8008 85.464 18.5205 86.1852 22.1092C86.9064 25.6978 88.6867 28.9942 91.3008 31.5815C93.9149 34.1687 97.2455 35.9307 100.871 36.6445C104.497 37.3583 108.256 36.992 111.671 35.5918C115.087 34.1915 118.006 31.8203 120.06 28.778C122.114 25.7357 123.21 22.1589 123.21 18.5C123.204 13.5953 121.233 8.89303 117.729 5.42485C114.225 1.95667 109.474 0.00572656 104.518 5.62637e-08ZM104.518 29.8784C102.4 29.8794 100.322 29.3011 98.5147 28.2073C96.7073 27.1135 95.2405 25.5467 94.2761 23.6798C93.3117 21.8129 92.8872 19.7187 93.0496 17.6281C93.2119 15.5376 93.9547 13.5321 95.196 11.833C96.4373 10.1339 98.1288 8.80731 100.084 7.99965C102.039 7.19199 104.181 6.93467 106.275 7.25609C108.368 7.57752 110.331 8.46518 111.947 9.8211C113.563 11.177 114.769 12.9485 115.432 14.9399H104.518V22.0601H115.432C114.672 24.3325 113.21 26.3106 111.251 27.7139C109.292 29.1173 106.936 29.8746 104.518 29.8784Z" fill="#394149"/>
</svg>
